G04 #@! TF.GenerationSoftware,KiCad,Pcbnew,(5.1.2-1)-1*
G04 #@! TF.CreationDate,2020-04-09T00:01:10-04:00*
G04 #@! TF.ProjectId,rca_breadboard_adapter,7263615f-6272-4656-9164-626f6172645f,rev?*
G04 #@! TF.SameCoordinates,Original*
G04 #@! TF.FileFunction,Legend,Bot*
G04 #@! TF.FilePolarity,Positive*
%FSLAX46Y46*%
G04 Gerber Fmt 4.6, Leading zero omitted, Abs format (unit mm)*
G04 Created by KiCad (PCBNEW (5.1.2-1)-1) date 2020-04-09 00:01:10*
%MOMM*%
%LPD*%
G04 APERTURE LIST*
%ADD10C,0.150000*%
%ADD11C,0.120000*%
G04 APERTURE END LIST*
D10*
X141470952Y-54411666D02*
X141423333Y-54459285D01*
X141328095Y-54602142D01*
X141280476Y-54697380D01*
X141232857Y-54840238D01*
X141185238Y-55078333D01*
X141185238Y-55268809D01*
X141232857Y-55506904D01*
X141280476Y-55649761D01*
X141328095Y-55745000D01*
X141423333Y-55887857D01*
X141470952Y-55935476D01*
X142280476Y-55459285D02*
X142280476Y-54792619D01*
X141851904Y-55459285D02*
X141851904Y-54935476D01*
X141899523Y-54840238D01*
X141994761Y-54792619D01*
X142137619Y-54792619D01*
X142232857Y-54840238D01*
X142280476Y-54887857D01*
X142709047Y-54840238D02*
X142804285Y-54792619D01*
X142994761Y-54792619D01*
X143090000Y-54840238D01*
X143137619Y-54935476D01*
X143137619Y-54983095D01*
X143090000Y-55078333D01*
X142994761Y-55125952D01*
X142851904Y-55125952D01*
X142756666Y-55173571D01*
X142709047Y-55268809D01*
X142709047Y-55316428D01*
X142756666Y-55411666D01*
X142851904Y-55459285D01*
X142994761Y-55459285D01*
X143090000Y-55411666D01*
X143947142Y-54840238D02*
X143851904Y-54792619D01*
X143661428Y-54792619D01*
X143566190Y-54840238D01*
X143518571Y-54935476D01*
X143518571Y-55316428D01*
X143566190Y-55411666D01*
X143661428Y-55459285D01*
X143851904Y-55459285D01*
X143947142Y-55411666D01*
X143994761Y-55316428D01*
X143994761Y-55221190D01*
X143518571Y-55125952D01*
X144423333Y-54887857D02*
X144470952Y-54840238D01*
X144423333Y-54792619D01*
X144375714Y-54840238D01*
X144423333Y-54887857D01*
X144423333Y-54792619D01*
X144423333Y-55411666D02*
X144470952Y-55364047D01*
X144423333Y-55316428D01*
X144375714Y-55364047D01*
X144423333Y-55411666D01*
X144423333Y-55316428D01*
X146232857Y-54887857D02*
X146185238Y-54840238D01*
X146042380Y-54792619D01*
X145947142Y-54792619D01*
X145804285Y-54840238D01*
X145709047Y-54935476D01*
X145661428Y-55030714D01*
X145613809Y-55221190D01*
X145613809Y-55364047D01*
X145661428Y-55554523D01*
X145709047Y-55649761D01*
X145804285Y-55745000D01*
X145947142Y-55792619D01*
X146042380Y-55792619D01*
X146185238Y-55745000D01*
X146232857Y-55697380D01*
X146661428Y-55792619D02*
X146661428Y-54983095D01*
X146709047Y-54887857D01*
X146756666Y-54840238D01*
X146851904Y-54792619D01*
X147042380Y-54792619D01*
X147137619Y-54840238D01*
X147185238Y-54887857D01*
X147232857Y-54983095D01*
X147232857Y-55792619D01*
X147709047Y-54792619D02*
X147709047Y-55792619D01*
X149518571Y-54792619D02*
X149185238Y-55268809D01*
X148947142Y-54792619D02*
X148947142Y-55792619D01*
X149328095Y-55792619D01*
X149423333Y-55745000D01*
X149470952Y-55697380D01*
X149518571Y-55602142D01*
X149518571Y-55459285D01*
X149470952Y-55364047D01*
X149423333Y-55316428D01*
X149328095Y-55268809D01*
X148947142Y-55268809D01*
X150518571Y-54887857D02*
X150470952Y-54840238D01*
X150328095Y-54792619D01*
X150232857Y-54792619D01*
X150090000Y-54840238D01*
X149994761Y-54935476D01*
X149947142Y-55030714D01*
X149899523Y-55221190D01*
X149899523Y-55364047D01*
X149947142Y-55554523D01*
X149994761Y-55649761D01*
X150090000Y-55745000D01*
X150232857Y-55792619D01*
X150328095Y-55792619D01*
X150470952Y-55745000D01*
X150518571Y-55697380D01*
X151232857Y-55792619D02*
X151232857Y-55078333D01*
X151185238Y-54935476D01*
X151090000Y-54840238D01*
X150947142Y-54792619D01*
X150851904Y-54792619D01*
X151709047Y-55173571D02*
X152470952Y-55173571D01*
X153137619Y-55792619D02*
X153232857Y-55792619D01*
X153328095Y-55745000D01*
X153375714Y-55697380D01*
X153423333Y-55602142D01*
X153470952Y-55411666D01*
X153470952Y-55173571D01*
X153423333Y-54983095D01*
X153375714Y-54887857D01*
X153328095Y-54840238D01*
X153232857Y-54792619D01*
X153137619Y-54792619D01*
X153042380Y-54840238D01*
X152994761Y-54887857D01*
X152947142Y-54983095D01*
X152899523Y-55173571D01*
X152899523Y-55411666D01*
X152947142Y-55602142D01*
X152994761Y-55697380D01*
X153042380Y-55745000D01*
X153137619Y-55792619D01*
X153851904Y-55697380D02*
X153899523Y-55745000D01*
X153994761Y-55792619D01*
X154232857Y-55792619D01*
X154328095Y-55745000D01*
X154375714Y-55697380D01*
X154423333Y-55602142D01*
X154423333Y-55506904D01*
X154375714Y-55364047D01*
X153804285Y-54792619D01*
X154423333Y-54792619D01*
X154756666Y-55792619D02*
X155423333Y-54792619D01*
X155423333Y-55792619D02*
X154756666Y-54792619D01*
X155709047Y-54411666D02*
X155756666Y-54459285D01*
X155851904Y-54602142D01*
X155899523Y-54697380D01*
X155947142Y-54840238D01*
X155994761Y-55078333D01*
X155994761Y-55268809D01*
X155947142Y-55506904D01*
X155899523Y-55649761D01*
X155851904Y-55745000D01*
X155756666Y-55887857D01*
X155709047Y-55935476D01*
X141439523Y-58792619D02*
X141106190Y-59268809D01*
X140868095Y-58792619D02*
X140868095Y-59792619D01*
X141249047Y-59792619D01*
X141344285Y-59745000D01*
X141391904Y-59697380D01*
X141439523Y-59602142D01*
X141439523Y-59459285D01*
X141391904Y-59364047D01*
X141344285Y-59316428D01*
X141249047Y-59268809D01*
X140868095Y-59268809D01*
X142439523Y-58887857D02*
X142391904Y-58840238D01*
X142249047Y-58792619D01*
X142153809Y-58792619D01*
X142010952Y-58840238D01*
X141915714Y-58935476D01*
X141868095Y-59030714D01*
X141820476Y-59221190D01*
X141820476Y-59364047D01*
X141868095Y-59554523D01*
X141915714Y-59649761D01*
X142010952Y-59745000D01*
X142153809Y-59792619D01*
X142249047Y-59792619D01*
X142391904Y-59745000D01*
X142439523Y-59697380D01*
X142820476Y-59078333D02*
X143296666Y-59078333D01*
X142725238Y-58792619D02*
X143058571Y-59792619D01*
X143391904Y-58792619D01*
X144820476Y-59316428D02*
X144963333Y-59268809D01*
X145010952Y-59221190D01*
X145058571Y-59125952D01*
X145058571Y-58983095D01*
X145010952Y-58887857D01*
X144963333Y-58840238D01*
X144868095Y-58792619D01*
X144487142Y-58792619D01*
X144487142Y-59792619D01*
X144820476Y-59792619D01*
X144915714Y-59745000D01*
X144963333Y-59697380D01*
X145010952Y-59602142D01*
X145010952Y-59506904D01*
X144963333Y-59411666D01*
X144915714Y-59364047D01*
X144820476Y-59316428D01*
X144487142Y-59316428D01*
X145487142Y-58792619D02*
X145487142Y-59459285D01*
X145487142Y-59268809D02*
X145534761Y-59364047D01*
X145582380Y-59411666D01*
X145677619Y-59459285D01*
X145772857Y-59459285D01*
X146487142Y-58840238D02*
X146391904Y-58792619D01*
X146201428Y-58792619D01*
X146106190Y-58840238D01*
X146058571Y-58935476D01*
X146058571Y-59316428D01*
X146106190Y-59411666D01*
X146201428Y-59459285D01*
X146391904Y-59459285D01*
X146487142Y-59411666D01*
X146534761Y-59316428D01*
X146534761Y-59221190D01*
X146058571Y-59125952D01*
X147391904Y-58792619D02*
X147391904Y-59316428D01*
X147344285Y-59411666D01*
X147249047Y-59459285D01*
X147058571Y-59459285D01*
X146963333Y-59411666D01*
X147391904Y-58840238D02*
X147296666Y-58792619D01*
X147058571Y-58792619D01*
X146963333Y-58840238D01*
X146915714Y-58935476D01*
X146915714Y-59030714D01*
X146963333Y-59125952D01*
X147058571Y-59173571D01*
X147296666Y-59173571D01*
X147391904Y-59221190D01*
X148296666Y-58792619D02*
X148296666Y-59792619D01*
X148296666Y-58840238D02*
X148201428Y-58792619D01*
X148010952Y-58792619D01*
X147915714Y-58840238D01*
X147868095Y-58887857D01*
X147820476Y-58983095D01*
X147820476Y-59268809D01*
X147868095Y-59364047D01*
X147915714Y-59411666D01*
X148010952Y-59459285D01*
X148201428Y-59459285D01*
X148296666Y-59411666D01*
X148772857Y-58792619D02*
X148772857Y-59792619D01*
X148772857Y-59411666D02*
X148868095Y-59459285D01*
X149058571Y-59459285D01*
X149153809Y-59411666D01*
X149201428Y-59364047D01*
X149249047Y-59268809D01*
X149249047Y-58983095D01*
X149201428Y-58887857D01*
X149153809Y-58840238D01*
X149058571Y-58792619D01*
X148868095Y-58792619D01*
X148772857Y-58840238D01*
X149820476Y-58792619D02*
X149725238Y-58840238D01*
X149677619Y-58887857D01*
X149630000Y-58983095D01*
X149630000Y-59268809D01*
X149677619Y-59364047D01*
X149725238Y-59411666D01*
X149820476Y-59459285D01*
X149963333Y-59459285D01*
X150058571Y-59411666D01*
X150106190Y-59364047D01*
X150153809Y-59268809D01*
X150153809Y-58983095D01*
X150106190Y-58887857D01*
X150058571Y-58840238D01*
X149963333Y-58792619D01*
X149820476Y-58792619D01*
X151010952Y-58792619D02*
X151010952Y-59316428D01*
X150963333Y-59411666D01*
X150868095Y-59459285D01*
X150677619Y-59459285D01*
X150582380Y-59411666D01*
X151010952Y-58840238D02*
X150915714Y-58792619D01*
X150677619Y-58792619D01*
X150582380Y-58840238D01*
X150534761Y-58935476D01*
X150534761Y-59030714D01*
X150582380Y-59125952D01*
X150677619Y-59173571D01*
X150915714Y-59173571D01*
X151010952Y-59221190D01*
X151487142Y-58792619D02*
X151487142Y-59459285D01*
X151487142Y-59268809D02*
X151534761Y-59364047D01*
X151582380Y-59411666D01*
X151677619Y-59459285D01*
X151772857Y-59459285D01*
X152534761Y-58792619D02*
X152534761Y-59792619D01*
X152534761Y-58840238D02*
X152439523Y-58792619D01*
X152249047Y-58792619D01*
X152153809Y-58840238D01*
X152106190Y-58887857D01*
X152058571Y-58983095D01*
X152058571Y-59268809D01*
X152106190Y-59364047D01*
X152153809Y-59411666D01*
X152249047Y-59459285D01*
X152439523Y-59459285D01*
X152534761Y-59411666D01*
X153725238Y-59078333D02*
X154201428Y-59078333D01*
X153630000Y-58792619D02*
X153963333Y-59792619D01*
X154296666Y-58792619D01*
X155058571Y-58792619D02*
X155058571Y-59792619D01*
X155058571Y-58840238D02*
X154963333Y-58792619D01*
X154772857Y-58792619D01*
X154677619Y-58840238D01*
X154630000Y-58887857D01*
X154582380Y-58983095D01*
X154582380Y-59268809D01*
X154630000Y-59364047D01*
X154677619Y-59411666D01*
X154772857Y-59459285D01*
X154963333Y-59459285D01*
X155058571Y-59411666D01*
X155963333Y-58792619D02*
X155963333Y-59316428D01*
X155915714Y-59411666D01*
X155820476Y-59459285D01*
X155630000Y-59459285D01*
X155534761Y-59411666D01*
X155963333Y-58840238D02*
X155868095Y-58792619D01*
X155630000Y-58792619D01*
X155534761Y-58840238D01*
X155487142Y-58935476D01*
X155487142Y-59030714D01*
X155534761Y-59125952D01*
X155630000Y-59173571D01*
X155868095Y-59173571D01*
X155963333Y-59221190D01*
X156439523Y-59459285D02*
X156439523Y-58459285D01*
X156439523Y-59411666D02*
X156534761Y-59459285D01*
X156725238Y-59459285D01*
X156820476Y-59411666D01*
X156868095Y-59364047D01*
X156915714Y-59268809D01*
X156915714Y-58983095D01*
X156868095Y-58887857D01*
X156820476Y-58840238D01*
X156725238Y-58792619D01*
X156534761Y-58792619D01*
X156439523Y-58840238D01*
X157201428Y-59459285D02*
X157582380Y-59459285D01*
X157344285Y-59792619D02*
X157344285Y-58935476D01*
X157391904Y-58840238D01*
X157487142Y-58792619D01*
X157582380Y-58792619D01*
X158296666Y-58840238D02*
X158201428Y-58792619D01*
X158010952Y-58792619D01*
X157915714Y-58840238D01*
X157868095Y-58935476D01*
X157868095Y-59316428D01*
X157915714Y-59411666D01*
X158010952Y-59459285D01*
X158201428Y-59459285D01*
X158296666Y-59411666D01*
X158344285Y-59316428D01*
X158344285Y-59221190D01*
X157868095Y-59125952D01*
X158772857Y-58792619D02*
X158772857Y-59459285D01*
X158772857Y-59268809D02*
X158820476Y-59364047D01*
X158868095Y-59411666D01*
X158963333Y-59459285D01*
X159058571Y-59459285D01*
X160058571Y-59459285D02*
X160296666Y-58792619D01*
X160534761Y-59459285D01*
X161439523Y-58792619D02*
X160868095Y-58792619D01*
X161153809Y-58792619D02*
X161153809Y-59792619D01*
X161058571Y-59649761D01*
X160963333Y-59554523D01*
X160868095Y-59506904D01*
X148630000Y-57142619D02*
X148630000Y-58142619D01*
X148630000Y-57761666D02*
X148725238Y-57809285D01*
X148915714Y-57809285D01*
X149010952Y-57761666D01*
X149058571Y-57714047D01*
X149106190Y-57618809D01*
X149106190Y-57333095D01*
X149058571Y-57237857D01*
X149010952Y-57190238D01*
X148915714Y-57142619D01*
X148725238Y-57142619D01*
X148630000Y-57190238D01*
X149439523Y-57809285D02*
X149677619Y-57142619D01*
X149915714Y-57809285D02*
X149677619Y-57142619D01*
X149582380Y-56904523D01*
X149534761Y-56856904D01*
X149439523Y-56809285D01*
X151344285Y-58142619D02*
X151344285Y-57428333D01*
X151296666Y-57285476D01*
X151201428Y-57190238D01*
X151058571Y-57142619D01*
X150963333Y-57142619D01*
X151725238Y-58142619D02*
X151963333Y-57142619D01*
X152153809Y-57856904D01*
X152344285Y-57142619D01*
X152582380Y-58142619D01*
X152963333Y-57142619D02*
X152963333Y-58142619D01*
X153296666Y-57428333D01*
X153630000Y-58142619D01*
X153630000Y-57142619D01*
D11*
X157420000Y-48200000D02*
X162620000Y-48200000D01*
X157420000Y-53340000D02*
X157420000Y-48200000D01*
X162620000Y-55940000D02*
X162620000Y-48200000D01*
X157420000Y-53340000D02*
X160020000Y-53340000D01*
X160020000Y-53340000D02*
X160020000Y-55940000D01*
X160020000Y-55940000D02*
X162620000Y-55940000D01*
X157420000Y-54610000D02*
X157420000Y-55940000D01*
X157420000Y-55940000D02*
X158750000Y-55940000D01*
X157420000Y-68640000D02*
X158750000Y-68640000D01*
X157420000Y-67310000D02*
X157420000Y-68640000D01*
X160020000Y-68640000D02*
X162620000Y-68640000D01*
X160020000Y-66040000D02*
X160020000Y-68640000D01*
X157420000Y-66040000D02*
X160020000Y-66040000D01*
X162620000Y-68640000D02*
X162620000Y-60900000D01*
X157420000Y-66040000D02*
X157420000Y-60900000D01*
X157420000Y-60900000D02*
X162620000Y-60900000D01*
M02*
