G04 #@! TF.GenerationSoftware,KiCad,Pcbnew,(5.1.2-1)-1*
G04 #@! TF.CreationDate,2020-04-09T00:01:10-04:00*
G04 #@! TF.ProjectId,rca_breadboard_adapter,7263615f-6272-4656-9164-626f6172645f,rev?*
G04 #@! TF.SameCoordinates,Original*
G04 #@! TF.FileFunction,Legend,Top*
G04 #@! TF.FilePolarity,Positive*
%FSLAX46Y46*%
G04 Gerber Fmt 4.6, Leading zero omitted, Abs format (unit mm)*
G04 Created by KiCad (PCBNEW (5.1.2-1)-1) date 2020-04-09 00:01:10*
%MOMM*%
%LPD*%
G04 APERTURE LIST*
%ADD10C,0.150000*%
%ADD11C,0.120000*%
G04 APERTURE END LIST*
D10*
X156336904Y-55110000D02*
X156432142Y-55157619D01*
X156575000Y-55157619D01*
X156717857Y-55110000D01*
X156813095Y-55014761D01*
X156860714Y-54919523D01*
X156908333Y-54729047D01*
X156908333Y-54586190D01*
X156860714Y-54395714D01*
X156813095Y-54300476D01*
X156717857Y-54205238D01*
X156575000Y-54157619D01*
X156479761Y-54157619D01*
X156336904Y-54205238D01*
X156289285Y-54252857D01*
X156289285Y-54586190D01*
X156479761Y-54586190D01*
X155860714Y-54157619D02*
X155860714Y-55157619D01*
X155289285Y-54157619D01*
X155289285Y-55157619D01*
X154813095Y-54157619D02*
X154813095Y-55157619D01*
X154575000Y-55157619D01*
X154432142Y-55110000D01*
X154336904Y-55014761D01*
X154289285Y-54919523D01*
X154241666Y-54729047D01*
X154241666Y-54586190D01*
X154289285Y-54395714D01*
X154336904Y-54300476D01*
X154432142Y-54205238D01*
X154575000Y-54157619D01*
X154813095Y-54157619D01*
X156598809Y-49077619D02*
X156598809Y-50077619D01*
X156217857Y-50077619D01*
X156122619Y-50030000D01*
X156075000Y-49982380D01*
X156027380Y-49887142D01*
X156027380Y-49744285D01*
X156075000Y-49649047D01*
X156122619Y-49601428D01*
X156217857Y-49553809D01*
X156598809Y-49553809D01*
X155598809Y-49077619D02*
X155598809Y-50077619D01*
X155122619Y-49077619D02*
X155122619Y-50077619D01*
X154551190Y-49077619D01*
X154551190Y-50077619D01*
X154813095Y-66810000D02*
X154717857Y-66762380D01*
X154575000Y-66762380D01*
X154432142Y-66810000D01*
X154336904Y-66905238D01*
X154289285Y-67000476D01*
X154241666Y-67190952D01*
X154241666Y-67333809D01*
X154289285Y-67524285D01*
X154336904Y-67619523D01*
X154432142Y-67714761D01*
X154575000Y-67762380D01*
X154670238Y-67762380D01*
X154813095Y-67714761D01*
X154860714Y-67667142D01*
X154860714Y-67333809D01*
X154670238Y-67333809D01*
X155289285Y-67762380D02*
X155289285Y-66762380D01*
X155860714Y-67762380D01*
X155860714Y-66762380D01*
X156336904Y-67762380D02*
X156336904Y-66762380D01*
X156575000Y-66762380D01*
X156717857Y-66810000D01*
X156813095Y-66905238D01*
X156860714Y-67000476D01*
X156908333Y-67190952D01*
X156908333Y-67333809D01*
X156860714Y-67524285D01*
X156813095Y-67619523D01*
X156717857Y-67714761D01*
X156575000Y-67762380D01*
X156336904Y-67762380D01*
X154551190Y-62682380D02*
X154551190Y-61682380D01*
X154932142Y-61682380D01*
X155027380Y-61730000D01*
X155075000Y-61777619D01*
X155122619Y-61872857D01*
X155122619Y-62015714D01*
X155075000Y-62110952D01*
X155027380Y-62158571D01*
X154932142Y-62206190D01*
X154551190Y-62206190D01*
X155551190Y-62682380D02*
X155551190Y-61682380D01*
X156027380Y-62682380D02*
X156027380Y-61682380D01*
X156598809Y-62682380D01*
X156598809Y-61682380D01*
D11*
X152570000Y-49070000D02*
X152570000Y-50410000D01*
X152570000Y-55070000D02*
X152570000Y-53730000D01*
X142070000Y-55070000D02*
X142070000Y-53730000D01*
X142070000Y-49070000D02*
X142070000Y-50390000D01*
X142070000Y-49070000D02*
X143290000Y-49070000D01*
X142070000Y-55070000D02*
X143300000Y-55070000D01*
X152570000Y-55070000D02*
X151310000Y-55070000D01*
X152570000Y-49070000D02*
X151290000Y-49070000D01*
X151283120Y-55118554D02*
G75*
G02X143320000Y-55070000I-3963120J3048554D01*
G01*
X143320000Y-49070001D02*
G75*
G02X151319999Y-49070000I4000000J-2999999D01*
G01*
X152570000Y-61770000D02*
X152570000Y-63110000D01*
X152570000Y-67770000D02*
X152570000Y-66430000D01*
X142070000Y-67770000D02*
X142070000Y-66430000D01*
X142070000Y-61770000D02*
X142070000Y-63090000D01*
X142070000Y-61770000D02*
X143290000Y-61770000D01*
X142070000Y-67770000D02*
X143300000Y-67770000D01*
X152570000Y-67770000D02*
X151310000Y-67770000D01*
X152570000Y-61770000D02*
X151290000Y-61770000D01*
X151283120Y-67818554D02*
G75*
G02X143320000Y-67770000I-3963120J3048554D01*
G01*
X143320000Y-61770001D02*
G75*
G02X151319999Y-61770000I4000000J-2999999D01*
G01*
M02*
