G04 #@! TF.GenerationSoftware,KiCad,Pcbnew,(5.1.2-1)-1*
G04 #@! TF.CreationDate,2020-04-21T23:13:36-04:00*
G04 #@! TF.ProjectId,rca_breadboard_adapter,7263615f-6272-4656-9164-626f6172645f,rev?*
G04 #@! TF.SameCoordinates,Original*
G04 #@! TF.FileFunction,Legend,Bot*
G04 #@! TF.FilePolarity,Positive*
%FSLAX46Y46*%
G04 Gerber Fmt 4.6, Leading zero omitted, Abs format (unit mm)*
G04 Created by KiCad (PCBNEW (5.1.2-1)-1) date 2020-04-21 23:13:36*
%MOMM*%
%LPD*%
G04 APERTURE LIST*
%ADD10C,0.150000*%
%ADD11C,0.120000*%
G04 APERTURE END LIST*
D10*
X142193095Y-56729285D02*
X142193095Y-55919761D01*
X142145476Y-55824523D01*
X142097857Y-55776904D01*
X142002619Y-55729285D01*
X141859761Y-55729285D01*
X141764523Y-55776904D01*
X142193095Y-56110238D02*
X142097857Y-56062619D01*
X141907380Y-56062619D01*
X141812142Y-56110238D01*
X141764523Y-56157857D01*
X141716904Y-56253095D01*
X141716904Y-56538809D01*
X141764523Y-56634047D01*
X141812142Y-56681666D01*
X141907380Y-56729285D01*
X142097857Y-56729285D01*
X142193095Y-56681666D01*
X142669285Y-56062619D02*
X142669285Y-56729285D01*
X142669285Y-57062619D02*
X142621666Y-57015000D01*
X142669285Y-56967380D01*
X142716904Y-57015000D01*
X142669285Y-57062619D01*
X142669285Y-56967380D01*
X143002619Y-56729285D02*
X143383571Y-56729285D01*
X143145476Y-57062619D02*
X143145476Y-56205476D01*
X143193095Y-56110238D01*
X143288333Y-56062619D01*
X143383571Y-56062619D01*
X143716904Y-56062619D02*
X143716904Y-57062619D01*
X144145476Y-56062619D02*
X144145476Y-56586428D01*
X144097857Y-56681666D01*
X144002619Y-56729285D01*
X143859761Y-56729285D01*
X143764523Y-56681666D01*
X143716904Y-56634047D01*
X145050238Y-56729285D02*
X145050238Y-56062619D01*
X144621666Y-56729285D02*
X144621666Y-56205476D01*
X144669285Y-56110238D01*
X144764523Y-56062619D01*
X144907380Y-56062619D01*
X145002619Y-56110238D01*
X145050238Y-56157857D01*
X145526428Y-56062619D02*
X145526428Y-57062619D01*
X145526428Y-56681666D02*
X145621666Y-56729285D01*
X145812142Y-56729285D01*
X145907380Y-56681666D01*
X145955000Y-56634047D01*
X146002619Y-56538809D01*
X146002619Y-56253095D01*
X145955000Y-56157857D01*
X145907380Y-56110238D01*
X145812142Y-56062619D01*
X145621666Y-56062619D01*
X145526428Y-56110238D01*
X146431190Y-56157857D02*
X146478809Y-56110238D01*
X146431190Y-56062619D01*
X146383571Y-56110238D01*
X146431190Y-56157857D01*
X146431190Y-56062619D01*
X147335952Y-56110238D02*
X147240714Y-56062619D01*
X147050238Y-56062619D01*
X146955000Y-56110238D01*
X146907380Y-56157857D01*
X146859761Y-56253095D01*
X146859761Y-56538809D01*
X146907380Y-56634047D01*
X146955000Y-56681666D01*
X147050238Y-56729285D01*
X147240714Y-56729285D01*
X147335952Y-56681666D01*
X147907380Y-56062619D02*
X147812142Y-56110238D01*
X147764523Y-56157857D01*
X147716904Y-56253095D01*
X147716904Y-56538809D01*
X147764523Y-56634047D01*
X147812142Y-56681666D01*
X147907380Y-56729285D01*
X148050238Y-56729285D01*
X148145476Y-56681666D01*
X148193095Y-56634047D01*
X148240714Y-56538809D01*
X148240714Y-56253095D01*
X148193095Y-56157857D01*
X148145476Y-56110238D01*
X148050238Y-56062619D01*
X147907380Y-56062619D01*
X148669285Y-56062619D02*
X148669285Y-56729285D01*
X148669285Y-56634047D02*
X148716904Y-56681666D01*
X148812142Y-56729285D01*
X148955000Y-56729285D01*
X149050238Y-56681666D01*
X149097857Y-56586428D01*
X149097857Y-56062619D01*
X149097857Y-56586428D02*
X149145476Y-56681666D01*
X149240714Y-56729285D01*
X149383571Y-56729285D01*
X149478809Y-56681666D01*
X149526428Y-56586428D01*
X149526428Y-56062619D01*
X150716904Y-57110238D02*
X149859761Y-55824523D01*
X151050238Y-56729285D02*
X151050238Y-55872142D01*
X151002619Y-55776904D01*
X150907380Y-55729285D01*
X150859761Y-55729285D01*
X151050238Y-57062619D02*
X151002619Y-57015000D01*
X151050238Y-56967380D01*
X151097857Y-57015000D01*
X151050238Y-57062619D01*
X151050238Y-56967380D01*
X151669285Y-56062619D02*
X151574047Y-56110238D01*
X151526428Y-56157857D01*
X151478809Y-56253095D01*
X151478809Y-56538809D01*
X151526428Y-56634047D01*
X151574047Y-56681666D01*
X151669285Y-56729285D01*
X151812142Y-56729285D01*
X151907380Y-56681666D01*
X151955000Y-56634047D01*
X152002619Y-56538809D01*
X152002619Y-56253095D01*
X151955000Y-56157857D01*
X151907380Y-56110238D01*
X151812142Y-56062619D01*
X151669285Y-56062619D01*
X152812142Y-56110238D02*
X152716904Y-56062619D01*
X152526428Y-56062619D01*
X152431190Y-56110238D01*
X152383571Y-56205476D01*
X152383571Y-56586428D01*
X152431190Y-56681666D01*
X152526428Y-56729285D01*
X152716904Y-56729285D01*
X152812142Y-56681666D01*
X152859761Y-56586428D01*
X152859761Y-56491190D01*
X152383571Y-56395952D01*
X153288333Y-56062619D02*
X153288333Y-56729285D01*
X153288333Y-56634047D02*
X153335952Y-56681666D01*
X153431190Y-56729285D01*
X153574047Y-56729285D01*
X153669285Y-56681666D01*
X153716904Y-56586428D01*
X153716904Y-56062619D01*
X153716904Y-56586428D02*
X153764523Y-56681666D01*
X153859761Y-56729285D01*
X154002619Y-56729285D01*
X154097857Y-56681666D01*
X154145476Y-56586428D01*
X154145476Y-56062619D01*
X141439523Y-57967619D02*
X141106190Y-58443809D01*
X140868095Y-57967619D02*
X140868095Y-58967619D01*
X141249047Y-58967619D01*
X141344285Y-58920000D01*
X141391904Y-58872380D01*
X141439523Y-58777142D01*
X141439523Y-58634285D01*
X141391904Y-58539047D01*
X141344285Y-58491428D01*
X141249047Y-58443809D01*
X140868095Y-58443809D01*
X142439523Y-58062857D02*
X142391904Y-58015238D01*
X142249047Y-57967619D01*
X142153809Y-57967619D01*
X142010952Y-58015238D01*
X141915714Y-58110476D01*
X141868095Y-58205714D01*
X141820476Y-58396190D01*
X141820476Y-58539047D01*
X141868095Y-58729523D01*
X141915714Y-58824761D01*
X142010952Y-58920000D01*
X142153809Y-58967619D01*
X142249047Y-58967619D01*
X142391904Y-58920000D01*
X142439523Y-58872380D01*
X142820476Y-58253333D02*
X143296666Y-58253333D01*
X142725238Y-57967619D02*
X143058571Y-58967619D01*
X143391904Y-57967619D01*
X144820476Y-58491428D02*
X144963333Y-58443809D01*
X145010952Y-58396190D01*
X145058571Y-58300952D01*
X145058571Y-58158095D01*
X145010952Y-58062857D01*
X144963333Y-58015238D01*
X144868095Y-57967619D01*
X144487142Y-57967619D01*
X144487142Y-58967619D01*
X144820476Y-58967619D01*
X144915714Y-58920000D01*
X144963333Y-58872380D01*
X145010952Y-58777142D01*
X145010952Y-58681904D01*
X144963333Y-58586666D01*
X144915714Y-58539047D01*
X144820476Y-58491428D01*
X144487142Y-58491428D01*
X145487142Y-57967619D02*
X145487142Y-58634285D01*
X145487142Y-58443809D02*
X145534761Y-58539047D01*
X145582380Y-58586666D01*
X145677619Y-58634285D01*
X145772857Y-58634285D01*
X146487142Y-58015238D02*
X146391904Y-57967619D01*
X146201428Y-57967619D01*
X146106190Y-58015238D01*
X146058571Y-58110476D01*
X146058571Y-58491428D01*
X146106190Y-58586666D01*
X146201428Y-58634285D01*
X146391904Y-58634285D01*
X146487142Y-58586666D01*
X146534761Y-58491428D01*
X146534761Y-58396190D01*
X146058571Y-58300952D01*
X147391904Y-57967619D02*
X147391904Y-58491428D01*
X147344285Y-58586666D01*
X147249047Y-58634285D01*
X147058571Y-58634285D01*
X146963333Y-58586666D01*
X147391904Y-58015238D02*
X147296666Y-57967619D01*
X147058571Y-57967619D01*
X146963333Y-58015238D01*
X146915714Y-58110476D01*
X146915714Y-58205714D01*
X146963333Y-58300952D01*
X147058571Y-58348571D01*
X147296666Y-58348571D01*
X147391904Y-58396190D01*
X148296666Y-57967619D02*
X148296666Y-58967619D01*
X148296666Y-58015238D02*
X148201428Y-57967619D01*
X148010952Y-57967619D01*
X147915714Y-58015238D01*
X147868095Y-58062857D01*
X147820476Y-58158095D01*
X147820476Y-58443809D01*
X147868095Y-58539047D01*
X147915714Y-58586666D01*
X148010952Y-58634285D01*
X148201428Y-58634285D01*
X148296666Y-58586666D01*
X148772857Y-57967619D02*
X148772857Y-58967619D01*
X148772857Y-58586666D02*
X148868095Y-58634285D01*
X149058571Y-58634285D01*
X149153809Y-58586666D01*
X149201428Y-58539047D01*
X149249047Y-58443809D01*
X149249047Y-58158095D01*
X149201428Y-58062857D01*
X149153809Y-58015238D01*
X149058571Y-57967619D01*
X148868095Y-57967619D01*
X148772857Y-58015238D01*
X149820476Y-57967619D02*
X149725238Y-58015238D01*
X149677619Y-58062857D01*
X149630000Y-58158095D01*
X149630000Y-58443809D01*
X149677619Y-58539047D01*
X149725238Y-58586666D01*
X149820476Y-58634285D01*
X149963333Y-58634285D01*
X150058571Y-58586666D01*
X150106190Y-58539047D01*
X150153809Y-58443809D01*
X150153809Y-58158095D01*
X150106190Y-58062857D01*
X150058571Y-58015238D01*
X149963333Y-57967619D01*
X149820476Y-57967619D01*
X151010952Y-57967619D02*
X151010952Y-58491428D01*
X150963333Y-58586666D01*
X150868095Y-58634285D01*
X150677619Y-58634285D01*
X150582380Y-58586666D01*
X151010952Y-58015238D02*
X150915714Y-57967619D01*
X150677619Y-57967619D01*
X150582380Y-58015238D01*
X150534761Y-58110476D01*
X150534761Y-58205714D01*
X150582380Y-58300952D01*
X150677619Y-58348571D01*
X150915714Y-58348571D01*
X151010952Y-58396190D01*
X151487142Y-57967619D02*
X151487142Y-58634285D01*
X151487142Y-58443809D02*
X151534761Y-58539047D01*
X151582380Y-58586666D01*
X151677619Y-58634285D01*
X151772857Y-58634285D01*
X152534761Y-57967619D02*
X152534761Y-58967619D01*
X152534761Y-58015238D02*
X152439523Y-57967619D01*
X152249047Y-57967619D01*
X152153809Y-58015238D01*
X152106190Y-58062857D01*
X152058571Y-58158095D01*
X152058571Y-58443809D01*
X152106190Y-58539047D01*
X152153809Y-58586666D01*
X152249047Y-58634285D01*
X152439523Y-58634285D01*
X152534761Y-58586666D01*
X153725238Y-58253333D02*
X154201428Y-58253333D01*
X153630000Y-57967619D02*
X153963333Y-58967619D01*
X154296666Y-57967619D01*
X155058571Y-57967619D02*
X155058571Y-58967619D01*
X155058571Y-58015238D02*
X154963333Y-57967619D01*
X154772857Y-57967619D01*
X154677619Y-58015238D01*
X154630000Y-58062857D01*
X154582380Y-58158095D01*
X154582380Y-58443809D01*
X154630000Y-58539047D01*
X154677619Y-58586666D01*
X154772857Y-58634285D01*
X154963333Y-58634285D01*
X155058571Y-58586666D01*
X155963333Y-57967619D02*
X155963333Y-58491428D01*
X155915714Y-58586666D01*
X155820476Y-58634285D01*
X155630000Y-58634285D01*
X155534761Y-58586666D01*
X155963333Y-58015238D02*
X155868095Y-57967619D01*
X155630000Y-57967619D01*
X155534761Y-58015238D01*
X155487142Y-58110476D01*
X155487142Y-58205714D01*
X155534761Y-58300952D01*
X155630000Y-58348571D01*
X155868095Y-58348571D01*
X155963333Y-58396190D01*
X156439523Y-58634285D02*
X156439523Y-57634285D01*
X156439523Y-58586666D02*
X156534761Y-58634285D01*
X156725238Y-58634285D01*
X156820476Y-58586666D01*
X156868095Y-58539047D01*
X156915714Y-58443809D01*
X156915714Y-58158095D01*
X156868095Y-58062857D01*
X156820476Y-58015238D01*
X156725238Y-57967619D01*
X156534761Y-57967619D01*
X156439523Y-58015238D01*
X157201428Y-58634285D02*
X157582380Y-58634285D01*
X157344285Y-58967619D02*
X157344285Y-58110476D01*
X157391904Y-58015238D01*
X157487142Y-57967619D01*
X157582380Y-57967619D01*
X158296666Y-58015238D02*
X158201428Y-57967619D01*
X158010952Y-57967619D01*
X157915714Y-58015238D01*
X157868095Y-58110476D01*
X157868095Y-58491428D01*
X157915714Y-58586666D01*
X158010952Y-58634285D01*
X158201428Y-58634285D01*
X158296666Y-58586666D01*
X158344285Y-58491428D01*
X158344285Y-58396190D01*
X157868095Y-58300952D01*
X158772857Y-57967619D02*
X158772857Y-58634285D01*
X158772857Y-58443809D02*
X158820476Y-58539047D01*
X158868095Y-58586666D01*
X158963333Y-58634285D01*
X159058571Y-58634285D01*
X160058571Y-58634285D02*
X160296666Y-57967619D01*
X160534761Y-58634285D01*
X161439523Y-57967619D02*
X160868095Y-57967619D01*
X161153809Y-57967619D02*
X161153809Y-58967619D01*
X161058571Y-58824761D01*
X160963333Y-58729523D01*
X160868095Y-58681904D01*
D11*
X157420000Y-48200000D02*
X162620000Y-48200000D01*
X157420000Y-53340000D02*
X157420000Y-48200000D01*
X162620000Y-55940000D02*
X162620000Y-48200000D01*
X157420000Y-53340000D02*
X160020000Y-53340000D01*
X160020000Y-53340000D02*
X160020000Y-55940000D01*
X160020000Y-55940000D02*
X162620000Y-55940000D01*
X157420000Y-54610000D02*
X157420000Y-55940000D01*
X157420000Y-55940000D02*
X158750000Y-55940000D01*
X157420000Y-68640000D02*
X158750000Y-68640000D01*
X157420000Y-67310000D02*
X157420000Y-68640000D01*
X160020000Y-68640000D02*
X162620000Y-68640000D01*
X160020000Y-66040000D02*
X160020000Y-68640000D01*
X157420000Y-66040000D02*
X160020000Y-66040000D01*
X162620000Y-68640000D02*
X162620000Y-60900000D01*
X157420000Y-66040000D02*
X157420000Y-60900000D01*
X157420000Y-60900000D02*
X162620000Y-60900000D01*
M02*
